<?xml version="1.0" encoding="UTF-8"?><svg id="b" xmlns="http://www.w3.org/2000/svg" viewBox="0 0 16.39 16.39"><defs><style>.d{fill:#404fff;}.e{fill:#f0f4ff;}</style></defs><g id="c"><path class="d" d="m12.44,16.15h0c-2.34.31-6.16.31-8.49,0h0c-1.8-.24-3.47-1.91-3.71-3.71h0c-.31-2.34-.31-6.16,0-8.49h0C.47,2.14,2.14.47,3.95.23h0c2.34-.31,6.16-.31,8.49,0h0c1.8.24,3.47,1.91,3.71,3.71h0c.31,2.34.31,6.16,0,8.49h0c-.24,1.8-1.91,3.47-3.71,3.71Z"/><path class="e" d="m7.8,13.19h1.36s0-1.92,0-1.92h-2.08c-1.03,0-1.88-.85-1.88-1.88v-2.08s-1.92,0-1.92,0v1.36c0,.49.2.97.55,1.32l2.66,2.66c.35.35.82.54,1.31.54Z"/><path class="e" d="m7.23,7.71v1.36s1.92,0,1.92,0v-2.08c0-1.03.85-1.88,1.88-1.88h2.08s0-1.92,0-1.92h-1.36c-.49,0-.97.2-1.32.55l-2.66,2.66c-.35.35-.54.82-.54,1.31Z"/></g></svg>