<?xml version="1.0" encoding="utf-8"?>
<!-- Generator: Adobe Illustrator 26.0.1, SVG Export Plug-In . SVG Version: 6.00 Build 0)  -->
<svg version="1.1" id="Camada_1" xmlns="http://www.w3.org/2000/svg" xmlns:xlink="http://www.w3.org/1999/xlink" x="0px" y="0px"
	 viewBox="0 0 24 24" style="enable-background:new 0 0 24 24;" xml:space="preserve">
<style type="text/css">
	.st0{fill:#0E41E2;}
	.st1{fill:#FFFFFF;}
</style>
<path class="st0" d="M16.8,23.7H7.2c-3.8,0-6.9-3.1-6.9-6.9V7.2c0-3.8,3.1-6.9,6.9-6.9h9.7c3.8,0,6.9,3.1,6.9,6.9v9.7
	C23.7,20.6,20.6,23.7,16.8,23.7z"/>
<path class="st1" d="M15.8,6.3c-1.3,0-2.8,0.3-3.8,1c-1-0.8-2.4-1-3.8-1c-1,0-2,0.2-2.9,0.5C4.8,7.1,4.5,7.6,4.5,8.1v7.7
	c0,0.9,0.8,1.5,1.7,1.3c0.7-0.2,1.4-0.2,2.1-0.2c1.1,0,2.2,0.2,3.1,0.6c0.4,0.2,0.9,0.2,1.3,0c0.9-0.5,2-0.6,3.1-0.6
	c0.7,0,1.4,0.1,2.1,0.2c0.9,0.2,1.7-0.4,1.7-1.3V8.1c0-0.6-0.3-1-0.8-1.3C17.8,6.5,16.7,6.3,15.8,6.3z M18.1,15
	c0,0.4-0.4,0.7-0.8,0.7c-0.5-0.1-1-0.1-1.6-0.1c-1.2,0-2.8,0.4-3.8,1V8.7c0.9-0.6,2.6-1,3.8-1c0.6,0,1.2,0.1,1.8,0.2
	c0.3,0.1,0.5,0.3,0.5,0.7V15z"/>
<path class="st1" d="M13.4,10.8c-0.2,0-0.4-0.1-0.5-0.4c-0.1-0.3,0.1-0.6,0.3-0.6c1.1-0.3,2.4-0.5,3.7-0.3c0.3,0,0.5,0.3,0.5,0.6
	c0,0.3-0.3,0.5-0.6,0.5c-1.1-0.1-2.3,0-3.2,0.3C13.5,10.7,13.4,10.8,13.4,10.8z"/>
<path class="st1" d="M13.4,12.6c-0.2,0-0.4-0.1-0.5-0.4c-0.1-0.3,0.1-0.6,0.3-0.6c1-0.3,2.4-0.5,3.7-0.3c0.3,0,0.5,0.3,0.5,0.6
	c0,0.3-0.3,0.5-0.6,0.5c-1.1-0.1-2.3,0-3.2,0.3C13.5,12.6,13.4,12.6,13.4,12.6z"/>
<path class="st1" d="M13.4,14.4c-0.2,0-0.4-0.1-0.5-0.4c-0.1-0.3,0.1-0.6,0.3-0.6c1-0.3,2.4-0.5,3.7-0.3c0.3,0,0.5,0.3,0.5,0.6
	c0,0.3-0.3,0.5-0.6,0.5c-1.1-0.1-2.3,0-3.2,0.3C13.5,14.4,13.4,14.4,13.4,14.4z"/>
</svg>
