<?xml version="1.0" encoding="utf-8"?>
<!-- Generator: Adobe Illustrator 26.0.1, SVG Export Plug-In . SVG Version: 6.00 Build 0)  -->
<svg version="1.1" id="Camada_1" xmlns="http://www.w3.org/2000/svg" xmlns:xlink="http://www.w3.org/1999/xlink" x="0px" y="0px"
	 viewBox="0 0 128 128" style="enable-background:new 0 0 128 128;" xml:space="preserve">
<style type="text/css">
	.st0{fill:#AEB2BF;}
</style>
<g>
	<path class="st0" d="M13.9,11.5c-1.3,0-2.4,1.1-2.4,2.4s1.1,2.4,2.4,2.4s2.4-1.1,2.4-2.4S15.1,11.5,13.9,11.5z"/>
	<path class="st0" d="M33.9,11.5c-1.3,0-2.4,1.1-2.4,2.4s1.1,2.4,2.4,2.4s2.4-1.1,2.4-2.4S35.2,11.5,33.9,11.5z"/>
	<path class="st0" d="M54,11.5c-1.3,0-2.4,1.1-2.4,2.4s1.1,2.4,2.4,2.4s2.4-1.1,2.4-2.4S55.3,11.5,54,11.5z"/>
	<path class="st0" d="M74,11.5c-1.3,0-2.4,1.1-2.4,2.4s1.1,2.4,2.4,2.4s2.4-1.1,2.4-2.4S75.3,11.5,74,11.5z"/>
	<path class="st0" d="M94.1,11.5c-1.3,0-2.4,1.1-2.4,2.4s1.1,2.4,2.4,2.4s2.4-1.1,2.4-2.4S95.4,11.5,94.1,11.5z"/>
	<path class="st0" d="M114.1,16.2c1.3,0,2.4-1.1,2.4-2.4s-1.1-2.4-2.4-2.4s-2.4,1.1-2.4,2.4S112.9,16.2,114.1,16.2z"/>
	<path class="st0" d="M13.9,31.6c-1.3,0-2.4,1.1-2.4,2.4s1.1,2.4,2.4,2.4s2.4-1.1,2.4-2.4S15.1,31.6,13.9,31.6z"/>
	<path class="st0" d="M33.9,31.6c-1.3,0-2.4,1.1-2.4,2.4s1.1,2.4,2.4,2.4s2.4-1.1,2.4-2.4S35.2,31.6,33.9,31.6z"/>
	<path class="st0" d="M54,31.6c-1.3,0-2.4,1.1-2.4,2.4s1.1,2.4,2.4,2.4s2.4-1.1,2.4-2.4S55.3,31.6,54,31.6z"/>
	<path class="st0" d="M74,31.6c-1.3,0-2.4,1.1-2.4,2.4s1.1,2.4,2.4,2.4s2.4-1.1,2.4-2.4S75.3,31.6,74,31.6z"/>
	<circle class="st0" cx="94.1" cy="33.9" r="2.4"/>
	<path class="st0" d="M114.1,31.6c-1.3,0-2.4,1.1-2.4,2.4s1.1,2.4,2.4,2.4s2.4-1.1,2.4-2.4S115.4,31.6,114.1,31.6z"/>
	<path class="st0" d="M13.9,51.6c-1.3,0-2.4,1.1-2.4,2.4s1.1,2.4,2.4,2.4s2.4-1.1,2.4-2.4S15.1,51.6,13.9,51.6z"/>
	<path class="st0" d="M33.9,51.6c-1.3,0-2.4,1.1-2.4,2.4s1.1,2.4,2.4,2.4s2.4-1.1,2.4-2.4S35.2,51.6,33.9,51.6z"/>
	<path class="st0" d="M54,51.6c-1.3,0-2.4,1.1-2.4,2.4s1.1,2.4,2.4,2.4s2.4-1.1,2.4-2.4S55.3,51.6,54,51.6z"/>
	<path class="st0" d="M74,51.6c-1.3,0-2.4,1.1-2.4,2.4s1.1,2.4,2.4,2.4s2.4-1.1,2.4-2.4S75.3,51.6,74,51.6z"/>
	<path class="st0" d="M94.1,51.6c-1.3,0-2.4,1.1-2.4,2.4s1.1,2.4,2.4,2.4s2.4-1.1,2.4-2.4S95.4,51.6,94.1,51.6z"/>
	<path class="st0" d="M114.1,51.6c-1.3,0-2.4,1.1-2.4,2.4s1.1,2.4,2.4,2.4s2.4-1.1,2.4-2.4S115.4,51.6,114.1,51.6z"/>
	<path class="st0" d="M13.9,71.7c-1.3,0-2.4,1.1-2.4,2.4s1.1,2.4,2.4,2.4s2.4-1.1,2.4-2.4S15.1,71.7,13.9,71.7z"/>
	<path class="st0" d="M33.9,71.7c-1.3,0-2.4,1.1-2.4,2.4s1.1,2.4,2.4,2.4s2.4-1.1,2.4-2.4S35.2,71.7,33.9,71.7z"/>
	<path class="st0" d="M54,71.7c-1.3,0-2.4,1.1-2.4,2.4s1.1,2.4,2.4,2.4s2.4-1.1,2.4-2.4S55.3,71.7,54,71.7z"/>
	<path class="st0" d="M74,71.7c-1.3,0-2.4,1.1-2.4,2.4s1.1,2.4,2.4,2.4s2.4-1.1,2.4-2.4S75.3,71.7,74,71.7z"/>
	<path class="st0" d="M94.1,71.7c-1.3,0-2.4,1.1-2.4,2.4s1.1,2.4,2.4,2.4s2.4-1.1,2.4-2.4S95.4,71.7,94.1,71.7z"/>
	<path class="st0" d="M114.1,71.7c-1.3,0-2.4,1.1-2.4,2.4s1.1,2.4,2.4,2.4s2.4-1.1,2.4-2.4S115.4,71.7,114.1,71.7z"/>
	<path class="st0" d="M13.9,91.7c-1.3,0-2.4,1.1-2.4,2.4s1.1,2.4,2.4,2.4s2.4-1.1,2.4-2.4S15.1,91.7,13.9,91.7z"/>
	<path class="st0" d="M33.9,91.7c-1.3,0-2.4,1.1-2.4,2.4s1.1,2.4,2.4,2.4s2.4-1.1,2.4-2.4S35.2,91.7,33.9,91.7z"/>
	<path class="st0" d="M54,91.7c-1.3,0-2.4,1.1-2.4,2.4s1.1,2.4,2.4,2.4s2.4-1.1,2.4-2.4S55.3,91.7,54,91.7z"/>
	<path class="st0" d="M74,91.7c-1.3,0-2.4,1.1-2.4,2.4s1.1,2.4,2.4,2.4s2.4-1.1,2.4-2.4S75.3,91.7,74,91.7z"/>
	<circle class="st0" cx="94.1" cy="94.1" r="2.4"/>
	<path class="st0" d="M114.1,91.7c-1.3,0-2.4,1.1-2.4,2.4s1.1,2.4,2.4,2.4s2.4-1.1,2.4-2.4S115.4,91.7,114.1,91.7z"/>
	<path class="st0" d="M13.9,111.8c-1.3,0-2.4,1.1-2.4,2.4s1.1,2.4,2.4,2.4s2.4-1.1,2.4-2.4S15.1,111.8,13.9,111.8z"/>
	<path class="st0" d="M33.9,111.8c-1.3,0-2.4,1.1-2.4,2.4s1.1,2.4,2.4,2.4s2.4-1.1,2.4-2.4S35.2,111.8,33.9,111.8z"/>
	<path class="st0" d="M54,111.8c-1.3,0-2.4,1.1-2.4,2.4s1.1,2.4,2.4,2.4s2.4-1.1,2.4-2.4S55.3,111.8,54,111.8z"/>
	<path class="st0" d="M74,111.8c-1.3,0-2.4,1.1-2.4,2.4s1.1,2.4,2.4,2.4s2.4-1.1,2.4-2.4S75.3,111.8,74,111.8z"/>
	<path class="st0" d="M94.1,111.8c-1.3,0-2.4,1.1-2.4,2.4s1.1,2.4,2.4,2.4s2.4-1.1,2.4-2.4S95.4,111.8,94.1,111.8z"/>
	<path class="st0" d="M114.1,111.8c-1.3,0-2.4,1.1-2.4,2.4s1.1,2.4,2.4,2.4s2.4-1.1,2.4-2.4S115.4,111.8,114.1,111.8z"/>
</g>
</svg>
