<?xml version="1.0" encoding="utf-8"?>
<!-- Generator: Adobe Illustrator 26.0.1, SVG Export Plug-In . SVG Version: 6.00 Build 0)  -->
<svg version="1.1" id="Camada_1" xmlns="http://www.w3.org/2000/svg" xmlns:xlink="http://www.w3.org/1999/xlink" x="0px" y="0px"
	 viewBox="0 0 24 24" style="enable-background:new 0 0 24 24;" xml:space="preserve">
<style type="text/css">
	.st0{fill:#404FFF;}
	.st1{fill:#FFFFFF;}
</style>
<path class="st0" d="M16.8,23.7H7.2c-3.8,0-6.9-3.1-6.9-6.9V7.2c0-3.8,3.1-6.9,6.9-6.9h9.7c3.8,0,6.9,3.1,6.9,6.9v9.7
	C23.7,20.6,20.6,23.7,16.8,23.7z"/>
<path class="st1" d="M12.4,14.7c0.1-0.3,0-0.6-0.2-0.8l-1.5-1.5l0,0c1.3-1.4,2.2-3.1,2.7-4.8h1.4c0.4,0,0.7-0.3,0.7-0.7v0
	c0-0.4-0.3-0.7-0.7-0.7h-4.4V5.4c0-0.4-0.3-0.7-0.7-0.7S9,5,9,5.4v0.7H4.6c-0.4,0-0.7,0.3-0.7,0.7c0,0.4,0.3,0.7,0.7,0.7h7.5
	c-0.5,1.4-1.3,2.8-2.3,3.9c-0.6-0.7-1.1-1.4-1.5-2.1C8.1,9.2,7.9,9.1,7.7,9.1c-0.5,0-0.8,0.6-0.6,1c0.5,0.8,1,1.6,1.7,2.4l-3.2,3.2
	c-0.3,0.3-0.3,0.8,0,1c0.3,0.3,0.7,0.3,1,0l3.1-3.2l1.5,1.5C11.6,15.3,12.2,15.2,12.4,14.7L12.4,14.7z M16,10.5
	c-0.4,0-0.8,0.3-1,0.7l-2.7,7.2c-0.2,0.4,0.2,0.9,0.6,0.9c0.3,0,0.5-0.2,0.6-0.4l0.7-1.8h3.5l0.7,1.8c0.1,0.3,0.4,0.4,0.6,0.4
	c0.5,0,0.8-0.5,0.6-0.9L17,11.2C16.8,10.8,16.4,10.5,16,10.5L16,10.5z M14.8,15.7l1.2-3.2l1.2,3.2H14.8L14.8,15.7z"/>
</svg>
